# xmcd
#
# Track frame offsets: 
#        150
#        14462
#        29162
#        41160
#        55280
#        68492
#        81192
#        95472
#        107290
#        121254
#        132832
#        145490
#        158462
#        171610
#        183715
#        196159
#        208517
#        221847
#        233457
#        247290
#        289025
#
# Disc length: 4225 seconds
#
# Revision: 3
# Processed by: cddbd v1.5.2PL0 Copyright (c) Steve Scherf et al.
# Submitted via: ExactAudioCopy v1.0b1
#
DISCID=36107f15
DTITLE=Various Artist - Chess Blues Piano Greats [CD2]
DYEAR=1997
DGENRE=Blues
TTITLE0=Willie Mabon - I Don't Know (mono)
TTITLE1=Willie Mabon - Worry Blues (mono)
TTITLE2=Willie Mabon - I'm Mad (mono)
TTITLE3=Willie Mabon - Got To Have It (mono)
TTITLE4=Willie Mabon - Monday Woman (mono)
TTITLE5=Willie Mabon - I Got To Go (mono)
TTITLE6=Willie Mabon - Life Could Be Miserable (mono)
TTITLE7=Willie Mabon - Late Again (mono)
TTITLE8=Willie Mabon - Willie's Blues (mono)
TTITLE9=Willie Mabon - Say Man (mono)
TTITLE10=Willie Mabon - Poison Ivy (mono)
TTITLE11=Willie Mabon - Wow! I Feel So Good (mono)
TTITLE12=Willie Mabon - The Seventh Son (mono)
TTITLE13=Willie Mabon - Lucinda (mono)
TTITLE14=Willie Mabon - Someday You Will Have To Pay (mono)
TTITLE15=Willie Mabon - He Lied (mono)
TTITLE16=Willie Mabon - Knock On Wood (mono)
TTITLE17=Willie Mabon - I Love My Baby (mono)
TTITLE18=LaFayette Leake - Slow Leake (mono)
TTITLE19=LaFayette Leake - Wrinkles (live)
TTITLE20=LaFayette Leake - Swiss Boogie (live)
EXTD=
EXTT0=
EXTT1=
EXTT2=
EXTT3=
EXTT4=
EXTT5=
EXTT6=
EXTT7=
EXTT8=
EXTT9=
EXTT10=
EXTT11=
EXTT12=
EXTT13=
EXTT14=
EXTT15=
EXTT16=
EXTT17=
EXTT18=
EXTT19=
EXTT20=
PLAYORDER=
